<svg xmlns="http://www.w3.org/2000/svg" xmlns:svg="http://www.w3.org/2000/svg" xmlns:xlink="http://www.w3.org/1999/xlink" version="1.0" height="886.6666674613953pt" width="714.1666984558105pt" viewBox="375 2 722.1666984558105 892.6666674613953" ><defs><style type="text/css">
            @font-face {
                font-family: 'noto_regular';
                src: url('https://app.creately.com/diagram/assets/fonts/noto/noto-regular.woff') format('woff'),
                     url('https://app.creately.com/diagram/assets/fonts/noto/noto-regular.woff2') format('woff2');
                font-weight: normal;
                font-style: normal;
            }
        p {
            margin: 0;
        }
        </style></defs><defs><style>
            span{ display: inline-block; }
        </style></defs><g id="701mzq5gvo"><g transform="translate(719.6999998807908 26)"><ellipse cx="9.500000059604645" cy="-10.5" rx="9.500000059604645" ry="10.5" fill="rgba(255,255,255,1)" stroke="#ffffff" stroke-width="NaN" stroke-linecap="round" stroke-linejoin="round"/></g></g><g id="cdtdun7w4o"><g transform="translate(655 70)"><path d="M 25,50 L 25,50 L 25,50 A 25 25 0 0 1 0 25.000000000000004 L 0,25 L 0,25.000000000000004 A 25 25 0 0 1 25 0 L 125,0 L 125,0 L 125,0 A 25 25 0 0 1 150 25 L 150,25 L 150,25 A 25 25 0 0 1 125 50 L 25,50 Z" fill="rgba(255,255,255,1)" stroke="#000000" stroke-width="2" stroke-linecap="round" stroke-linejoin="round"/></g><g transform="translate(665, 85.5) rotate(0, 65, 9.5)" width="130" height="19"><text text-decoration="none" x="6.5" fill="rgb(0, 0, 0)" font-size="9pt" font-family="Arial"  y="15">User&#160;</text><text text-decoration="none" x="33.5" fill="rgb(0, 0, 0)" font-size="9pt" font-family="Arial"  y="15">id&#160;</text><text text-decoration="none" x="46.5" fill="rgb(0, 0, 0)" font-size="9pt" font-family="Arial"  y="15">and&#160;</text><text text-decoration="none" x="70.5" fill="rgb(0, 0, 0)" font-size="9pt" font-family="Arial"  y="15">password</text><text text-decoration="none" x="123.5" fill="#4b4b4b" font-size="10pt" font-family="noto_regular"  y="15"></text></g></g><g id="8r2iy0vu46"><g transform="translate(705 185)"><path d="M 25,0 L 0,25 L 25,50 L 50,25 L 25,0 Z" fill="rgba(255,255,255,1)" stroke="#000000" stroke-width="2" stroke-linecap="round" stroke-linejoin="round"/></g></g><g id="vbb1hfqf4k"><g><path d="M 730,120 L 730,185" fill="none" stroke="#000000" stroke-width="2" stroke-linecap="round" stroke-linejoin="round"/><path d="M 730,185 L 736.4971751412429,178.04347826086956 M 730,185 L 723.5028248587571,178.04347826086956 Z" fill="rgb(255,255,255)" stroke="#000000" stroke-width="2" stroke-linecap="round" stroke-linejoin="round"/></g></g><g id="2abotteann"><g transform="translate(855 185)"><path d="M 25,50 L 25,50 L 25,50 A 25 25 0 0 1 0 25.000000000000004 L 0,25 L 0,25.000000000000004 A 25 25 0 0 1 25 0 L 125,0 L 125,0 L 125,0 A 25 25 0 0 1 150 25 L 150,25 L 150,25 A 25 25 0 0 1 125 50 L 25,50 Z" fill="rgba(255,255,255,1)" stroke="#000000" stroke-width="2" stroke-linecap="round" stroke-linejoin="round"/></g><g transform="translate(858.5, 200.5) rotate(0, 71.5, 9.5)" width="143" height="19"><text text-decoration="none" x="7" fill="rgb(0, 0, 0)" font-size="9pt" font-family="Arial"  y="15">Invalid&#160;</text><text text-decoration="none" x="46" fill="rgb(0, 0, 0)" font-size="9pt" font-family="Arial"  y="15">id&#160;</text><text text-decoration="none" x="59" fill="rgb(0, 0, 0)" font-size="9pt" font-family="Arial"  y="15">and&#160;</text><text text-decoration="none" x="83" fill="rgb(0, 0, 0)" font-size="9pt" font-family="Arial"  y="15">password</text><text text-decoration="none" x="136" fill="#4b4b4b" font-size="10pt" font-family="noto_regular"  y="15"></text></g></g><g id="2eki7mtxgf"><g><path d="M 755,210 L 855,210" fill="none" stroke="#000000" stroke-width="2" stroke-linecap="round" stroke-linejoin="round"/><path d="M 855,210 L 848.0434782608696,203.50282485875707 M 855,210 L 848.0434782608696,216.49717514124293 Z" fill="rgb(255,255,255)" stroke="#000000" stroke-width="2" stroke-linecap="round" stroke-linejoin="round"/></g></g><g id="9vh6vn6t79"><g transform="translate(655 300)"><path d="M 25,50 L 25,50 L 25,50 A 25 25 0 0 1 0 25.000000000000004 L 0,25 L 0,25.000000000000004 A 25 25 0 0 1 25 0 L 125,0 L 125,0 L 125,0 A 25 25 0 0 1 150 25 L 150,25 L 150,25 A 25 25 0 0 1 125 50 L 25,50 Z" fill="rgba(255,255,255,1)" stroke="#000000" stroke-width="2" stroke-linecap="round" stroke-linejoin="round"/></g><g transform="translate(699, 315.5) rotate(0, 31, 9.5)" width="62" height="19"><text text-decoration="none" x="2.5" fill="rgb(0, 0, 0)" font-size="9pt" font-family="Arial"  y="15">Main&#160;</text><text text-decoration="none" x="32.5" fill="rgb(0, 0, 0)" font-size="9pt" font-family="Arial"  y="15">page</text><text text-decoration="none" x="59.5" fill="#4b4b4b" font-size="10pt" font-family="noto_regular"  y="15"></text></g></g><g id="1m2obp2u9a"><g><path d="M 730,235 L 730,300" fill="none" stroke="#000000" stroke-width="2" stroke-linecap="round" stroke-linejoin="round"/><path d="M 730,300 L 736.4971751412429,293.04347826086956 M 730,300 L 723.5028248587571,293.04347826086956 Z" fill="rgb(255,255,255)" stroke="#000000" stroke-width="2" stroke-linecap="round" stroke-linejoin="round"/></g></g><g id="6usn2p3jjl"><g transform="translate(705 500)"><path d="M 25,0 L 0,25 L 25,50 L 50,25 L 25,0 Z" fill="rgba(255,255,255,1)" stroke="#000000" stroke-width="2" stroke-linecap="round" stroke-linejoin="round"/></g></g><g id="2ih18ae009"><g><path d="M 730,550 L 730,595" fill="none" stroke="#000000" stroke-width="2" stroke-linecap="round" stroke-linejoin="round"/><path d="M 730,595 L 736.4971751412429,588.0434782608696 M 730,595 L 723.5028248587571,588.0434782608696 Z" fill="rgb(255,255,255)" stroke="#000000" stroke-width="2" stroke-linecap="round" stroke-linejoin="round"/></g></g><g id="1rn0bjsynh"><g><path d="M 729.6999998807908,25 L 730,70" fill="none" stroke="#000000" stroke-width="2" stroke-linecap="round" stroke-linejoin="round"/><path d="M 730,70 L 736.450654964811,63.000319289571884 M 730,70 L 723.456593436269,63.086946400851325 Z" fill="rgb(255,255,255)" stroke="#000000" stroke-width="2" stroke-linecap="round" stroke-linejoin="round"/></g></g><g id="38s6spo4nv"><g><path d="M 930,185 L 925,185 L 925,45" fill="none" stroke="#000000" stroke-width="2" stroke-linecap="round" stroke-linejoin="round"/></g></g><g id="1bg1py95bc"><g><path d="M 923,43 L 735,45" fill="none" stroke="#000000" stroke-width="1" stroke-linecap="round" stroke-linejoin="round"/><path d="M 735,45 L 742.0252430995996,51.42280615576309 M 735,45 L 741.887013152391,38.429191118151905 Z" fill="rgb(255,255,255)" stroke="#000000" stroke-width="1" stroke-linecap="round" stroke-linejoin="round"/></g></g><g id="x9e6du4dtm"><g transform="translate(655 400)"><path d="M 25,50 L 25,50 L 25,50 A 25 25 0 0 1 0 25.000000000000004 L 0,25 L 0,25.000000000000004 A 25 25 0 0 1 25 0 L 125,0 L 125,0 L 125,0 A 25 25 0 0 1 150 25 L 150,25 L 150,25 A 25 25 0 0 1 125 50 L 25,50 Z" fill="rgba(255,255,255,1)" stroke="#000000" stroke-width="2" stroke-linecap="round" stroke-linejoin="round"/></g><g transform="translate(664.5, 415.5) rotate(0, 65.5, 9.5)" width="131" height="19"><text text-decoration="none" x="8" fill="rgb(0, 0, 0)" font-size="9pt" font-family="Arial"  y="15">Register&#160;</text><text text-decoration="none" x="54" fill="rgb(0, 0, 0)" font-size="9pt" font-family="Arial"  y="15">New&#160;</text><text text-decoration="none" x="81" fill="rgb(0, 0, 0)" font-size="9pt" font-family="Arial"  y="15">Student</text><text text-decoration="none" x="123" fill="#4b4b4b" font-size="10pt" font-family="noto_regular"  y="15"></text></g></g><g id="104frl31qa"><g><path d="M 730,350 L 730,400" fill="none" stroke="#000000" stroke-width="2" stroke-linecap="round" stroke-linejoin="round"/><path d="M 730,400 L 736.4971751412429,393.04347826086956 M 730,400 L 723.5028248587571,393.04347826086956 Z" fill="rgb(255,255,255)" stroke="#000000" stroke-width="2" stroke-linecap="round" stroke-linejoin="round"/></g></g><g id="22r1rjwsym"><g><path d="M 730,450 L 730,500" fill="none" stroke="#000000" stroke-width="2" stroke-linecap="round" stroke-linejoin="round"/><path d="M 730,500 L 736.4971751412429,493.04347826086956 M 730,500 L 723.5028248587571,493.04347826086956 Z" fill="rgb(255,255,255)" stroke="#000000" stroke-width="2" stroke-linecap="round" stroke-linejoin="round"/></g></g><g id="24qtj8x4kr"><g><path d="M 705,525 L 550,525 L 550,320" fill="none" stroke="#000000" stroke-width="2" stroke-linecap="round" stroke-linejoin="round"/></g></g><g id="2x3cyve1ek"><mask id="a08ae" x="538" y="308" width="124" height="24" maskUnits="userSpaceOnUse"><rect x="538" y="308" width="124" height="24" fill="white" /><rect x="574" y="307.5" width="52" height="25" fill="black" /><rect x="574" y="307.5" width="52" height="25" fill="black" /><rect x="565" y="307.5" width="30" height="25" fill="black" /><rect x="574" y="307.5" width="52" height="25" fill="black" /><rect x="574" y="307.5" width="52" height="25" fill="black" /></mask><g mask="url(#a08ae)"><path d="M 550,320 L 650,320" fill="none" stroke="#000000" stroke-width="1" stroke-linecap="round" stroke-linejoin="round"/><path d="M 650,320 L 643.0434782608696,313.50282485875704 M 650,320 L 643.0434782608696,326.49717514124296 Z" fill="rgb(255,255,255)" stroke="#000000" stroke-width="1" stroke-linecap="round" stroke-linejoin="round"/></g><g transform="translate(577, 310.5)" width="46" height="19"><text text-decoration="none" x="3" fill="rgb(0, 0, 0)" font-size="9pt" font-family="Arial"  y="15">register</text><text text-decoration="none" x="43" fill="#4b4b4b" font-size="10pt" font-family="noto_regular"  y="15"></text></g><g transform="translate(577, 310.5)" width="46" height="19"><text text-decoration="none" x="3" fill="rgb(0, 0, 0)" font-size="9pt" font-family="Arial"  y="15">register</text><text text-decoration="none" x="43" fill="#4b4b4b" font-size="10pt" font-family="noto_regular"  y="15"></text></g><g transform="translate(568, 310.5)" width="24" height="19"><text text-decoration="none" x="2" fill="rgb(0, 0, 0)" font-size="9pt" font-family="Arial"  y="15">text</text><text text-decoration="none" x="22" fill="#4b4b4b" font-size="10pt" font-family="noto_regular"  y="15"></text></g><g transform="translate(577, 310.5)" width="46" height="19"><text text-decoration="none" x="3" fill="rgb(0, 0, 0)" font-size="9pt" font-family="Arial"  y="15">register</text><text text-decoration="none" x="43" fill="#4b4b4b" font-size="10pt" font-family="noto_regular"  y="15"></text></g><g transform="translate(577, 310.5)" width="46" height="19"><text text-decoration="none" x="3" fill="rgb(0, 0, 0)" font-size="9pt" font-family="Arial"  y="15">register</text><text text-decoration="none" x="43" fill="#4b4b4b" font-size="10pt" font-family="noto_regular"  y="15"></text></g></g><g id="1wdz94bwrx"><g transform="translate(680 145)"><rect x="0" y="0" width="150" height="37" fill="rgba(255,255,255,0.01)" stroke="rgba(255,255,255,0.01)" stroke-width="NaN" stroke-linecap="round" stroke-linejoin="round"/></g><g transform="translate(738.5, 154) rotate(0, 16.5, 9.5)" width="33" height="19"><text text-decoration="none" x="1.5" fill="rgb(0, 0, 0)" font-size="9pt" font-family="Arial"  y="15">Login</text><text text-decoration="none" x="31.5" fill="#4b4b4b" font-size="10pt" font-family="noto_regular"  y="15"></text></g></g><g id="1gks2bredw"><g transform="translate(725 185)"><rect x="0" y="0" width="150" height="37" fill="rgba(255,255,255,0.01)" stroke="rgba(255,255,255,0.01)" stroke-width="NaN" stroke-linecap="round" stroke-linejoin="round"/></g><g transform="translate(792, 194) rotate(0, 8, 9.5)" width="16" height="19"><text text-decoration="none" x="0" fill="rgb(0, 0, 0)" font-size="9pt" font-family="Arial"  y="15">No</text><text text-decoration="none" x="16" fill="#4b4b4b" font-size="10pt" font-family="noto_regular"  y="15"></text></g></g><g id="uy7zl9z739"><g transform="translate(675 265)"><rect x="0" y="0" width="150" height="37" fill="rgba(255,255,255,0.01)" stroke="rgba(255,255,255,0.01)" stroke-width="NaN" stroke-linecap="round" stroke-linejoin="round"/></g><g transform="translate(741, 274) rotate(0, 9, 9.5)" width="18" height="19"><text text-decoration="none" x="0" fill="rgb(0, 0, 0)" font-size="9pt" font-family="Arial"  y="15">Yes</text><text text-decoration="none" x="19" fill="#4b4b4b" font-size="10pt" font-family="noto_regular"  y="15"></text></g></g><g id="2e24xj6nm9"><g transform="translate(685 465)"><rect x="0" y="0" width="150" height="37" fill="rgba(255,255,255,0.01)" stroke="rgba(255,255,255,0.01)" stroke-width="NaN" stroke-linecap="round" stroke-linejoin="round"/></g><g transform="translate(736, 474) rotate(0, 24, 9.5)" width="48" height="19"><text text-decoration="none" x="2.5" fill="rgb(0, 0, 0)" font-size="9pt" font-family="Arial"  y="15">Register</text><text text-decoration="none" x="45.5" fill="#4b4b4b" font-size="10pt" font-family="noto_regular"  y="15"></text></g></g><g id="2hshimn42y"><g transform="translate(590 500)"><rect x="0" y="0" width="150" height="37" fill="rgba(255,255,255,0.01)" stroke="rgba(255,255,255,0.01)" stroke-width="NaN" stroke-linecap="round" stroke-linejoin="round"/></g><g transform="translate(657, 509) rotate(0, 8, 9.5)" width="16" height="19"><text text-decoration="none" x="0" fill="rgb(0, 0, 0)" font-size="9pt" font-family="Arial"  y="15">No</text><text text-decoration="none" x="16" fill="#4b4b4b" font-size="10pt" font-family="noto_regular"  y="15"></text></g></g><g id="1cm1nbxfkx"><g transform="translate(675 560)"><rect x="0" y="0" width="150" height="37" fill="rgba(255,255,255,0.01)" stroke="rgba(255,255,255,0.01)" stroke-width="NaN" stroke-linecap="round" stroke-linejoin="round"/></g><g transform="translate(741, 569) rotate(0, 9, 9.5)" width="18" height="19"><text text-decoration="none" x="0" fill="rgb(0, 0, 0)" font-size="9pt" font-family="Arial"  y="15">Yes</text><text text-decoration="none" x="19" fill="#4b4b4b" font-size="10pt" font-family="noto_regular"  y="15"></text></g></g><g id="1cd2sgpjgx"><g transform="translate(445 595)"><rect x="0" y="0" width="567.8813552856445" height="11.666666269302368" fill="rgba(255,255,255,1)" stroke="#ffffff" stroke-width="NaN" stroke-linecap="round" stroke-linejoin="round"/></g></g><g id="1vjjuh0lqh"><g><path d="M 445,590 L 445,690" fill="none" stroke="#000000" stroke-width="2" stroke-linecap="round" stroke-linejoin="round"/><path d="M 445,690 L 451.49717514124296,683.0434782608696 M 445,690 L 438.50282485875704,683.0434782608696 Z" fill="rgb(255,255,255)" stroke="#000000" stroke-width="2" stroke-linecap="round" stroke-linejoin="round"/></g></g><g id="1z6m4nbwjx"><g transform="translate(380 690)"><path d="M 25,50 L 25,50 L 25,50 A 25 25 0 0 1 0 25.000000000000004 L 0,25 L 0,25.000000000000004 A 25 25 0 0 1 25 0 L 105.0000011920929,0 L 105.0000011920929,0 L 105.0000011920929,0 A 25 25 0 0 1 130.0000011920929 25 L 130.0000011920929,25 L 130.0000011920929,25 A 25 25 0 0 1 105.0000011920929 50 L 25,50 Z" fill="rgba(255,255,255,1)" stroke="#000000" stroke-width="2" stroke-linecap="round" stroke-linejoin="round"/></g><g transform="translate(386.00000059604645, 705.5) rotate(0, 59, 9.5)" width="118" height="19"><text text-decoration="none" x="6" fill="rgb(0, 0, 0)" font-size="9pt" font-family="Arial"  y="15">Update&#160;</text><text text-decoration="none" x="48" fill="rgb(0, 0, 0)" font-size="9pt" font-family="Arial"  y="15">Information</text><text text-decoration="none" x="112" fill="#4b4b4b" font-size="10pt" font-family="noto_regular"  y="15"></text></g></g><g id="19hkedykz4"><mask id="b472c" x="1001" y="576" width="28" height="113" maskUnits="userSpaceOnUse"><rect x="1001" y="576" width="28" height="113" fill="white" /><rect x="1000" y="632.5" width="30" height="25" fill="black" /></mask><g mask="url(#b472c)"><path d="M 1015,590 L 1015,675" fill="none" stroke="#000000" stroke-width="2" stroke-linecap="round" stroke-linejoin="round"/><path d="M 1015,675 L 1021.4971751412429,668.0434782608696 M 1015,675 L 1008.5028248587571,668.0434782608696 Z" fill="rgb(255,255,255)" stroke="#000000" stroke-width="2" stroke-linecap="round" stroke-linejoin="round"/></g><g transform="translate(1003, 635.5)" width="24" height="19"><text text-decoration="none" x="2" fill="rgb(0, 0, 0)" font-size="9pt" font-family="Arial"  y="15">text</text><text text-decoration="none" x="22" fill="#4b4b4b" font-size="10pt" font-family="noto_regular"  y="15"></text></g></g><g id="2jvam8665u"><g transform="translate(960 675)"><path d="M 25,50 L 25,50 L 25,50 A 25 25 0 0 1 0 25.000000000000004 L 0,25 L 0,25.000000000000004 A 25 25 0 0 1 25 0 L 79.99999821186066,0 L 79.99999821186066,0 L 79.99999821186066,0 A 25 25 0 0 1 104.99999821186066 25 L 104.99999821186066,25 L 104.99999821186066,25 A 25 25 0 0 1 79.99999821186066 50 L 25,50 Z" fill="rgba(255,255,255,1)" stroke="#000000" stroke-width="2" stroke-linecap="round" stroke-linejoin="round"/></g><g transform="translate(977.4999991059303, 683) rotate(0, 35, 17)" width="70" height="34"><text text-decoration="none" x="18.5" fill="rgb(0, 0, 0)" font-size="9pt" font-family="Arial"  y="11">Delete&#160;</text><text text-decoration="none" x="3" fill="rgb(0, 0, 0)" font-size="9pt" font-family="Arial"  y="30">Information</text><text text-decoration="none" x="67" fill="#4b4b4b" font-size="10pt" font-family="noto_regular"  y="30"></text></g></g><g id="1uf4kj48be"><g><path d="M 445,740 L 485,795" fill="none" stroke="#000000" stroke-width="2" stroke-linecap="round" stroke-linejoin="round"/><path d="M 485,795 L 486.1628707815431,785.5525553154087 M 485,795 L 475.6538708160215,793.1954643812426 Z" fill="rgb(255,255,255)" stroke="#000000" stroke-width="2" stroke-linecap="round" stroke-linejoin="round"/></g></g><g id="2cvaov97ip"><g transform="translate(385 800)"><rect x="0" y="0" width="709.1666984558105" height="10" fill="rgba(255,255,255,1)" stroke="#ffffff" stroke-width="NaN" stroke-linecap="round" stroke-linejoin="round"/></g></g><g id="2od6x4ewkb"><g><path d="M 1010,725 L 995,795" fill="none" stroke="#000000" stroke-width="2" stroke-linecap="round" stroke-linejoin="round"/><path d="M 995,795 L 1002.8105471985276,789.5592434365658 M 995,795 L 990.1046401229454,786.8365490632268 Z" fill="rgb(255,255,255)" stroke="#000000" stroke-width="2" stroke-linecap="round" stroke-linejoin="round"/></g></g><g id="23c8vzn9cs"><g><path d="M 690,815 L 690,870" fill="none" stroke="#000000" stroke-width="2" stroke-linecap="round" stroke-linejoin="round"/><path d="M 690,870 L 696.4971751412429,863.0434782608696 M 690,870 L 683.5028248587571,863.0434782608696 Z" fill="rgb(255,255,255)" stroke="#000000" stroke-width="2" stroke-linecap="round" stroke-linejoin="round"/></g></g><g id="26tdf009ew"><g transform="translate(680 870)"><path d="L 25,10.833333730697632 A 12.5 12.5 0 1 0 24.99999375000052 10.845833728614302 M 23.125,10.833333730697632 L 23.125,10.833333730697632 A 10.625 10.625 0 1 1 23.124994687500443 10.82270873246846" fill="rgba(255,255,255,1)" stroke="#ffffff" stroke-width="2" stroke-linecap="round" stroke-linejoin="round"/><ellipse cx="12.5" cy="10.833333730697632" rx="6.25" ry="4.583333730697632" fill="rgba(255,255,255,1)" stroke="#ffffff" stroke-width="2" stroke-linecap="round" stroke-linejoin="round"/><path d="M 23.125,10.833333730697632 L 23.125,10.833333730697632 A 10.625 10.625 0 1 0 23.124994687500443 10.843958728926802 M 18.75,10.833333730697632 L 18.75,10.833333730697632 A 6.25 6.25 0 1 1 18.74999687500026 10.827083731739295" fill="rgba(255,255,255,0.01)" stroke="rgba(255,255,255,0.01)" stroke-width="2" stroke-linecap="round" stroke-linejoin="round"/></g></g><g id="5jfmwdwoff"><g transform="translate(673 822)"><rect x="0" y="0" width="91.00000262260437" height="29.99999976158142" fill="rgba(255,255,255,0.01)" stroke="rgba(255,255,255,0.01)" stroke-width="NaN" stroke-linecap="round" stroke-linejoin="round"/></g><g transform="translate(697.5000013113022, 827.4999998807907) rotate(0, 21, 9.5)" width="42" height="19"><text text-decoration="none" x="2" fill="rgb(0, 0, 0)" font-size="9pt" font-family="Arial"  y="15">Logout</text><text text-decoration="none" x="40" fill="#4b4b4b" font-size="10pt" font-family="noto_regular"  y="15"></text></g></g></svg>